<mxfile host="app.diagrams.net" modified="2023-11-14T10:32:43.083Z" agent="Mozilla/5.0 (Windows NT 10.0; Win64; x64) AppleWebKit/537.36 (KHTML, like Gecko) Chrome/119.0.0.0 Safari/537.36" version="22.1.0" etag="azgvp5pHDcV6lLlXVjXp" type="github">
  <diagram name="Page-1" id="TP3glamsga7pmZPKSC1N">
    <mxGraphModel>
      <root>
        <mxCell id="0" />
        <mxCell id="1" parent="0" />
      </root>
    </mxGraphModel>
  </diagram>
</mxfile>
